Coordinates
version=1
nRows=7
nColumns=42
inDegrees=yes

Units are S.I. units (second, meters, Newtons, ...)
If the header above contains a line with 'inDegrees', this indicates whether rotational values are in degrees (yes) or radians (no).

endheader
time	pelvis_tilt	pelvis_list	pelvis_rotation	pelvis_tx	pelvis_ty	pelvis_tz	hip_flexion_r	hip_adduction_r	hip_rotation_r	knee_angle_r	knee_adduction_r	knee_angle_r_beta	ankle_angle_r	subtalar_angle_r	mtp_angle_r	hip_flexion_l	hip_adduction_l	hip_rotation_l	knee_angle_l	knee_adduction_l	knee_angle_l_beta	ankle_angle_l	subtalar_angle_l	mtp_angle_l	lumbar_extension	lumbar_bending	lumbar_rotation	arm_flex_r	arm_add_r	arm_rot_r	elbow_flex_r	pro_sup_r	wrist_flex_r	wrist_dev_r	arm_flex_l	arm_add_l	arm_rot_l	elbow_flex_l	pro_sup_l	wrist_flex_l	wrist_dev_l
      1.44000000	      5.69228333	     -2.35405494	      7.75769720	     -1.01188648	      0.84966397	      0.21679128	     25.54837999	      3.54232076	    -25.52752499	     27.33682277	    -10.89031266	      0.47711756	      4.27481342	      9.28276168	     -7.50617068	    -19.28486456	     -0.34525395	      0.57155035	     28.08669810	     -5.53083976	      0.49020536	     23.23062910	      8.86925242	     -7.50617068	    -21.79757732	      5.42021092	     -0.19966037	     -7.63067742	    -16.78048710	     11.66398369	     34.92906515	     90.00000001	      0.00000000	      0.00000000	     25.46959442	    -21.53318432	     16.56117245	     56.36895590	     90.00000001	      0.00000000	      0.00000000
      1.45000000	      5.42579018	     -2.80676231	      7.35652933	     -0.99814362	      0.85024365	      0.21888955	     25.47893455	      4.59827122	    -23.45156218	     28.53140815	    -10.53032508	      0.49796701	      3.74333317	      5.25967406	     -7.50576598	    -17.84164834	     -0.96736319	     -0.27414698	     31.62945209	     -5.67220323	      0.55203808	     21.16204888	      8.24755272	     -7.50576598	    -21.46215982	      5.90030413	      0.11765529	     -7.00897053	    -16.96175786	     11.80517823	     34.60386066	     90.00000001	      0.00000000	      0.00000000	     24.22867145	    -21.22502708	     15.72214032	     56.12710691	     90.00000001	      0.00000000	      0.00000000
      1.46000000	      6.01104224	     -3.15080334	      6.98514455	     -0.98378060	      0.85259984	      0.22108333	     24.20507679	      5.47937314	    -22.91672216	     29.32222309	    -10.56846005	      0.51176934	      4.31705169	      5.11566863	     -7.50572972	    -17.75467424	     -1.61447558	     -0.32979495	     34.30827806	     -5.41602357	      0.59879241	     19.09543797	      8.18563232	     -7.50572972	    -22.05640217	      6.30299595	      0.60964011	     -6.41675374	    -17.14346703	     11.76454500	     34.60828149	     90.00000001	      0.00000000	      0.00000000	     23.30024381	    -21.08982599	     15.71956906	     55.82439977	     90.00000001	      0.00000000	      0.00000000
      1.47000000	      5.83036646	     -3.81758899	      6.73060800	     -0.96956256	      0.85393551	      0.22322819	     23.42732320	      6.68304575	    -22.25636014	     29.27440423	    -10.40489008	      0.51093474	      5.18916220	      4.19724208	     -7.50562742	    -15.78775285	     -2.74215865	     -1.85100362	     38.56437746	     -5.75354151	      0.67307536	     15.69286921	      6.75335014	     -7.50562742	    -21.67226395	      7.01714974	      0.86515239	     -5.84963083	    -17.37027800	     11.83977646	     34.45524039	     90.00000001	      0.00000000	      0.00000000	     21.91673471	    -20.94642176	     15.58419422	     55.28793993	     90.00000001	      0.00000000	      0.00000000
      1.48000000	      5.60716364	     -4.18579076	      6.10524525	     -0.95625385	      0.85553168	      0.22583810	     22.76312762	      7.64160801	    -20.84504295	     29.49970656	     -9.97220108	      0.51486701	      5.11438033	      1.69180933	     -7.50511946	    -13.82986537	     -3.38913360	     -2.77948358	     42.63226583	     -5.78845603	      0.74407341	     13.29633834	      4.88500091	     -7.50511946	    -21.45338458	      7.27880922	      1.43414065	     -5.08137033	    -17.65238916	     12.17999673	     34.35631815	     90.00000001	      0.00000000	      0.00000000	     20.76033195	    -20.67572243	     15.38663940	     54.62839720	     90.00000001	      0.00000000	      0.00000000
      1.49000000	      5.76650812	     -4.58525317	      5.70560433	     -0.94257056	      0.85792718	      0.22815675	     21.31541771	      8.52725550	    -20.59724033	     29.00568507	     -9.84161330	      0.50624471	      6.16496841	      2.08556880	     -7.50504198	    -12.28718800	     -4.20583381	     -3.85418618	     46.36981277	     -6.08602169	      0.80930591	     11.16400836	      3.69536702	     -7.50504198	    -21.58012541	      7.64264960	      1.91713440	     -4.39514738	    -17.88703354	     12.18026124	     34.46385987	     90.00000001	      0.00000000	      0.00000000	     19.69951734	    -20.51614225	     15.67354125	     53.88294400	     90.00000001	      0.00000000	      0.00000000
      1.50000000	      5.75452676	     -4.90032435	      5.22443447	     -0.92922370	      0.86009005	      0.23068441	     20.05036423	      9.32275029	    -20.56195721	     28.41644740	     -9.89211708	      0.49596057	      7.01298346	      2.83286227	     -7.50495840	    -10.37227741	     -4.93908710	     -5.09563144	     50.19804422	     -6.52003044	      0.87612115	      9.54964201	      1.65526398	     -7.50495840	    -21.54769889	      7.82993515	      2.48744065	     -3.69311111	    -18.10860069	     12.24548659	     34.61528149	     90.00000001	      0.00000000	      0.00000000	     18.71639115	    -20.33030781	     16.07493368	     53.00867422	     90.00000001	      0.00000000	      0.00000000
